<svg width="84" height="60" viewBox="0 0 84 60" fill="none" xmlns="http://www.w3.org/2000/svg">
<path d="M62.2639 16.4628H12.5234L22.7001 6.27116C24.1326 4.8365 24.1326 2.51082 22.7001 1.07615C21.2671 -0.358922 18.9453 -0.358514 17.5123 1.07615L1.07442 17.5391C-0.358139 18.9738 -0.358139 21.2995 1.07442 22.7341L17.5123 39.1963C18.2288 39.9138 19.1674 40.2722 20.106 40.2722C21.0446 40.2722 21.9832 39.9134 22.6997 39.1963C24.1322 37.7616 24.1322 35.436 22.6997 34.0013L12.523 23.8096H62.2635C70.2039 23.8096 76.664 30.2793 76.664 38.2314C76.664 46.1835 70.2039 52.6532 62.2635 52.6532H32.0058C29.9798 52.6532 28.3378 54.2977 28.3378 56.3266C28.3378 58.3555 29.9798 60 32.0058 60H62.2635C74.2488 60 84 50.2345 84 38.2314C84 26.2284 74.2493 16.4628 62.2639 16.4628Z" fill="black"/>
</svg>
